<?xml version="1.0" encoding="iso-8859-1"?>
<!-- Uploaded to: SVG Repo, www.svgrepo.com, Generator: SVG Repo Mixer Tools -->
<svg fill="#000000" height="800px" width="800px" version="1.1" id="Capa_1" xmlns="http://www.w3.org/2000/svg" xmlns:xlink="http://www.w3.org/1999/xlink" 
	 viewBox="0 0 489.9 489.9" xml:space="preserve">
<g>
	<path d="M443.65,448.4h-31.3c-7.7-74-54.2-168.7-119-202.6c65.7-33.5,113-129.6,121.8-204.2h28.5c11.4,0,20.8-9.4,20.8-20.8
		S455.05,0,443.65,0H46.25c-11.4,0-20.8,9.4-20.8,20.8s9.4,20.8,20.8,20.8h30.2c7.4,74.2,54,169.6,119.1,203.6
		c-65.3,33.4-112.3,128.7-120,203.1h-29.3c-11.4,0-20.8,9.4-20.8,20.8s9.4,20.8,20.8,20.8h397.4c11.4,0,20.8-9.4,20.8-20.8
		C464.45,457.7,455.05,448.4,443.65,448.4z M118.25,41.6h255.4c-9,73.9-64.9,175.8-127.7,175.8S127.35,115.5,118.25,41.6z
		 M244.95,273.6c62.5,0,118.2,101,127.6,174.8h-255.2C126.75,374.6,182.45,273.6,244.95,273.6z"/>
</g>
</svg>